<svg width="25" height="35" xmlns="http://www.w3.org/2000/svg">
 <!-- Created with Liveweave.com -->
 <g>
  <title>Layer 1</title>
  <g id="svg_13">
   <g transform="matrix(0.0787644, 0, 0, 0.0792944, 143.014, 73.384)" fill-rule="evenodd" fill="none" id="svg_11">
    <g id="svg_10">
     <path fill="#131313" id="svg_1" d="m-1572.655518,-905.463501l-24.687988,0l25.67395,27.859009l0,13.260986l-52.881958,0l0,-15.526001l25.669067,0l-25.669067,-27.859985l0,-13.279968l51.895996,0l0,15.545959l0,0zm-62.378052,0l-24.687988,0l25.673096,27.859009l0,13.260986l-52.88208,0l0,-15.526001l25.671997,0l-25.671997,-27.859985l0,-13.279968l51.896973,0l0,15.545959l0,0zm-61.767944,0.631042l-26.640015,0l0,24.312988l26.640015,0l0,16.175964l-45.573975,0l0,-56.665955l45.573975,0l0,16.177002l0,0zm0,0"/>
     <path fill="#1572B6" id="svg_2" d="m-1778.67749,-534.854492l-27.071045,-303.619995l297.449951,0l-27.095947,303.570984l-121.810913,33.769958l-121.472046,-33.720947zm0,0"/>
     <path fill="#33A9DC" id="svg_3" d="m-1657.021484,-526.945496l98.427002,-27.288025l23.156982,-259.414978l-121.583984,0l0,286.703003zm0,0"/>
     <g id="svg_9">
      <path fill="#FFFFFF" id="svg_4" d="m-1657.022583,-703.648499l49.275146,0l3.402954,-38.132019l-52.678101,0l0,-37.239014l0.129028,0l93.245972,0l-0.892944,9.991028l-9.151978,102.616028l-83.330078,0l0,-37.236023zm0,0"/>
      <path fill="#EBEBEB" id="svg_5" d="m-1656.799561,-606.940552l-0.162964,0.046021l-41.471924,-11.198975l-2.6521,-29.697998l-20.151001,0l-17.227905,0l5.215942,58.467041l76.277954,21.175964l0.171997,-0.048035l0,-38.744019zm0,0"/>
      <path fill="#FFFFFF" id="svg_6" d="m-1610.912476,-667.988525l-4.484009,49.869995l-41.532104,11.210022l0,38.742004l76.339111,-21.157959l0.559937,-6.290039l6.478027,-72.374023l-37.360962,0zm0,0"/>
      <path fill="#EBEBEB" id="svg_7" d="m-1656.893555,-779.019531l0,23.128052l0,14.018982l0,0.09198l-89.828003,0l-0.118896,0l-0.74707,-8.369995l-1.697021,-18.877991l-0.889893,-9.991028l93.280884,0zm0,0"/>
      <path fill="#EBEBEB" id="svg_8" d="m-1657.022583,-703.644531l0,23.129028l0,14.016968l0,0.092041l-40.827881,0l-0.119141,0l-0.74585,-8.369019l-1.697998,-18.877991l-0.890137,-9.991028l44.281006,0zm0,0"/>
     </g>
    </g>
   </g>
  </g>
 </g>
</svg>